# Blender v2.93.2 OBJ File: 'table.blend'
# www.blender.org
mtllib table.mtl
o Cube
v -1.039968 0.721867 0.772846
v 0.000000 0.721939 0.851354
v 1.039968 0.721867 0.772846
v -1.164686 0.721939 0.000000
v -1.039968 0.721867 -0.772846
v 0.000000 0.720000 0.000000
v 1.164686 0.721939 0.000000
v 0.000000 0.721939 -0.851354
v 1.039968 0.721867 -0.772846
v 1.061757 0.721939 0.803082
v 1.058905 0.680000 0.800924
v 0.930804 0.703751 0.734869
v 0.941730 -0.000245 0.723942
v 0.930804 0.703751 0.638031
v 0.941730 -0.000245 0.648957
v 1.027642 0.703751 0.734869
v 1.016716 -0.000245 0.723942
v 1.027642 0.703751 0.638031
v 1.016716 -0.000245 0.648957
v 0.937006 0.197455 0.728667
v 0.937006 0.197455 0.644232
v 1.021441 0.197455 0.644232
v 1.021441 0.197455 0.728667
v 1.032088 0.680000 0.803042
v 1.034868 0.721939 0.805205
v 1.067097 0.721939 0.770886
v 1.064230 0.680000 0.768815
v 1.039968 0.721867 0.772846
v 1.037278 0.680000 0.770847
v 1.056218 0.722612 0.797432
v 1.034651 0.724006 0.799356
v 1.061157 0.723659 0.770453
v 1.042036 0.724592 0.775815
v -1.061757 0.721939 0.803082
v -1.058905 0.680000 0.800924
v -0.930804 0.703751 0.734869
v -0.941730 -0.000245 0.723942
v -0.930804 0.703751 0.638031
v -0.941730 -0.000245 0.648957
v -1.027642 0.703751 0.734869
v -1.016716 -0.000245 0.723942
v -1.027642 0.703751 0.638031
v -1.016716 -0.000245 0.648957
v -0.937006 0.197455 0.728667
v -0.937006 0.197455 0.644232
v -1.021441 0.197455 0.644232
v -1.021441 0.197455 0.728667
v -1.032088 0.680000 0.803042
v -1.034868 0.721939 0.805205
v -1.067097 0.721939 0.770886
v -1.064230 0.680000 0.768815
v -1.039968 0.721867 0.772846
v -1.037278 0.680000 0.770847
v -1.056218 0.722612 0.797432
v -1.034651 0.724006 0.799356
v -1.061157 0.723659 0.770453
v -1.042036 0.724592 0.775815
v -1.061757 0.721939 0.803082
v -1.058905 0.680000 0.800924
v -0.930804 0.703751 0.734869
v -0.941730 -0.000245 0.723942
v -0.930804 0.703751 0.638031
v -0.941730 -0.000245 0.648957
v -1.027642 0.703751 0.734869
v -1.016716 -0.000245 0.723942
v -1.027642 0.703751 0.638031
v -1.016716 -0.000245 0.648957
v -0.937006 0.197455 0.728667
v -0.937006 0.197455 0.644232
v -1.021441 0.197455 0.644232
v -1.021441 0.197455 0.728667
v -1.032088 0.680000 0.803042
v -1.034868 0.721939 0.805205
v -1.067097 0.721939 0.770886
v -1.064230 0.680000 0.768815
v -1.039968 0.721867 0.772846
v -1.037278 0.680000 0.770847
v -1.056218 0.722612 0.797432
v -1.034651 0.724006 0.799356
v -1.061157 0.723659 0.770453
v -1.042036 0.724592 0.775815
v 1.061757 0.721939 0.803082
v 1.058905 0.680000 0.800924
v 0.000000 0.721939 0.886911
v 0.000000 0.680000 0.884529
v 0.930804 0.703751 0.734869
v 0.941730 -0.000245 0.723942
v 0.930804 0.703751 0.638031
v 0.941730 -0.000245 0.648957
v 1.027642 0.703751 0.734869
v 1.016716 -0.000245 0.723942
v 1.027642 0.703751 0.638031
v 1.016716 -0.000245 0.648957
v 0.937006 0.197455 0.728667
v 0.937006 0.197455 0.644232
v 1.021441 0.197455 0.644232
v 1.021441 0.197455 0.728667
v 1.032088 0.680000 0.803042
v 1.034868 0.721939 0.805205
v 1.067097 0.721939 0.770886
v 0.000000 0.680000 0.849067
v 0.000000 0.721939 0.851354
v 1.064230 0.680000 0.768815
v 1.039968 0.721867 0.772846
v 1.037278 0.680000 0.770847
v 1.056218 0.722612 0.797432
v 0.000000 0.731941 0.886911
v 1.034651 0.724006 0.799356
v 1.061157 0.723659 0.770453
v 0.000000 0.731941 0.851354
v 1.042036 0.724592 0.775815
v 1.061757 0.721939 -0.803082
v 1.058905 0.680000 -0.800924
v 0.930804 0.703751 -0.734869
v 0.941730 -0.000245 -0.723942
v 0.930804 0.703751 -0.638031
v 0.941730 -0.000245 -0.648957
v 1.027642 0.703751 -0.734869
v 1.016716 -0.000245 -0.723942
v 1.027642 0.703751 -0.638031
v 1.016716 -0.000245 -0.648957
v 1.194948 0.721939 0.000000
v 1.191738 0.680000 0.000000
v 0.937006 0.197455 -0.728667
v 0.937006 0.197455 -0.644232
v 1.021441 0.197455 -0.644232
v 1.021441 0.197455 -0.728667
v 1.032088 0.680000 -0.803042
v 1.034868 0.721939 -0.805205
v 1.164686 0.721939 0.000000
v 1.161557 0.680000 0.000000
v 1.067097 0.721939 -0.770886
v 1.064230 0.680000 -0.768815
v 1.039968 0.721867 -0.772846
v 1.037278 0.680000 -0.770847
v 1.056218 0.722612 -0.797432
v 1.194948 0.731941 0.000000
v 1.034651 0.724006 -0.799356
v 1.164686 0.731941 0.000000
v 1.061157 0.723659 -0.770453
v 1.042036 0.724592 -0.775815
v -1.061757 0.721939 -0.803082
v -1.058905 0.680000 -0.800924
v -0.930804 0.703751 -0.734869
v -0.941730 -0.000245 -0.723942
v -0.930804 0.703751 -0.638031
v -0.941730 -0.000245 -0.648957
v -1.027642 0.703751 -0.734869
v -1.016716 -0.000245 -0.723942
v -1.027642 0.703751 -0.638031
v -1.016716 -0.000245 -0.648957
v -1.194948 0.721939 0.000000
v -1.191738 0.680000 0.000000
v -0.937006 0.197455 -0.728667
v -0.937006 0.197455 -0.644232
v -1.021441 0.197455 -0.644232
v -1.021441 0.197455 -0.728667
v -1.032088 0.680000 -0.803042
v -1.034868 0.721939 -0.805205
v -1.164686 0.721939 0.000000
v -1.161557 0.680000 0.000000
v -1.067097 0.721939 -0.770886
v -1.064230 0.680000 -0.768815
v -1.039968 0.721867 -0.772846
v -1.037278 0.680000 -0.770847
v -1.056218 0.722612 -0.797432
v -1.194948 0.731941 0.000000
v -1.034651 0.724006 -0.799356
v -1.164686 0.731941 0.000000
v -1.061157 0.723659 -0.770453
v -1.042036 0.724592 -0.775815
v -1.061757 0.721939 -0.803082
v -1.058905 0.680000 -0.800924
v -0.930804 0.703751 -0.734869
v -0.941730 -0.000245 -0.723942
v -0.930804 0.703751 -0.638031
v -0.941730 -0.000245 -0.648957
v -1.027642 0.703751 -0.734869
v -1.016716 -0.000245 -0.723942
v -1.027642 0.703751 -0.638031
v -1.016716 -0.000245 -0.648957
v -1.194948 0.721939 0.000000
v -1.191738 0.680000 0.000000
v -0.937006 0.197455 -0.728667
v -0.937006 0.197455 -0.644232
v -1.021441 0.197455 -0.644232
v -1.021441 0.197455 -0.728667
v -1.032088 0.680000 -0.803042
v -1.034868 0.721939 -0.805205
v -1.164686 0.721939 0.000000
v -1.161557 0.680000 0.000000
v -1.067097 0.721939 -0.770886
v -1.064230 0.680000 -0.768815
v -1.039968 0.721867 -0.772846
v -1.037278 0.680000 -0.770847
v -1.056218 0.722612 -0.797432
v -1.194948 0.731941 0.000000
v -1.034651 0.724006 -0.799356
v -1.164686 0.731941 0.000000
v -1.061157 0.723659 -0.770453
v -1.042036 0.724592 -0.775815
v 1.061757 0.721939 -0.803082
v 1.058905 0.680000 -0.800924
v 0.000000 0.721939 -0.886911
v 0.000000 0.680000 -0.884529
v 0.930804 0.703751 -0.734869
v 0.941730 -0.000245 -0.723942
v 0.930804 0.703751 -0.638031
v 0.941730 -0.000245 -0.648957
v 1.027642 0.703751 -0.734869
v 1.016716 -0.000245 -0.723942
v 1.027642 0.703751 -0.638031
v 1.016716 -0.000245 -0.648957
v 1.194948 0.721939 0.000000
v 1.191738 0.680000 0.000000
v 0.000000 0.680000 0.000000
v 0.000000 0.720000 0.000000
v 0.937006 0.197455 -0.728667
v 0.937006 0.197455 -0.644232
v 1.021441 0.197455 -0.644232
v 1.021441 0.197455 -0.728667
v 1.032088 0.680000 -0.803042
v 1.034868 0.721939 -0.805205
v 1.164686 0.721939 0.000000
v 1.161557 0.680000 0.000000
v 1.067097 0.721939 -0.770886
v 0.000000 0.680000 -0.849067
v 0.000000 0.721939 -0.851354
v 1.064230 0.680000 -0.768815
v 1.039968 0.721867 -0.772846
v 1.037278 0.680000 -0.770847
v 1.056218 0.722612 -0.797432
v 0.000000 0.731941 -0.886911
v 1.194948 0.731941 0.000000
v 1.034651 0.724006 -0.799356
v 1.164686 0.731941 0.000000
v 1.061157 0.723659 -0.770453
v 0.000000 0.731941 -0.851354
v 1.042036 0.724592 -0.775815
vt 0.034678 0.256126
vt 0.052802 0.143815
vt 0.203932 0.132406
vt 0.203932 0.256126
vt 0.373187 0.256126
vt 0.355063 0.143815
vt 0.203932 0.379847
vt 0.052802 0.368438
vt 0.355063 0.368438
vt 0.907542 0.650252
vt 0.912911 0.650657
vt 0.911850 0.644260
vt 0.906508 0.643838
vt 0.913482 0.650244
vt 0.912418 0.643830
vt 0.907062 0.643407
vt 0.700902 0.627130
vt 0.700902 0.627605
vt 0.938952 0.803815
vt 0.938952 0.803815
vt 0.912299 0.650330
vt 0.887566 0.658654
vt 0.888507 0.659596
vt 0.888507 0.674534
vt 0.887566 0.675475
vt 0.903445 0.674534
vt 0.904387 0.675475
vt 0.903445 0.659596
vt 0.904387 0.658654
vt 0.886331 0.676710
vt 0.905622 0.676710
vt 0.905622 0.657419
vt 0.886331 0.657419
vt 0.932923 0.803815
vt 0.908078 0.649853
vt 0.908489 0.649262
vt 0.932923 0.803815
vt 0.700902 0.634669
vt 0.700902 0.803815
vt 0.932300 0.803815
vt 0.700902 0.634214
vt 0.700902 0.634214
vt 0.988822 0.251046
vt 0.756801 0.251046
vt 0.756801 0.081445
vt 0.963977 0.097085
vt 0.938312 0.803815
vt 0.700902 0.627130
vt 0.907018 0.644572
vt 0.911315 0.644956
vt 0.494262 0.650252
vt 0.495296 0.643838
vt 0.489954 0.644260
vt 0.488893 0.650657
vt 0.489385 0.643830
vt 0.488322 0.650244
vt 0.494742 0.643407
vt 0.489505 0.650330
vt 0.462852 0.803815
vt 0.462852 0.803815
vt 0.514238 0.658654
vt 0.514238 0.675475
vt 0.513296 0.674534
vt 0.513296 0.659596
vt 0.497417 0.675475
vt 0.498358 0.674534
vt 0.497417 0.658654
vt 0.498358 0.659596
vt 0.515473 0.676710
vt 0.515473 0.657419
vt 0.496182 0.657419
vt 0.496182 0.676710
vt 0.468881 0.803815
vt 0.468881 0.803815
vt 0.493314 0.649262
vt 0.493726 0.649853
vt 0.469504 0.803815
vt 0.524780 0.251046
vt 0.549625 0.097085
vt 0.463491 0.803815
vt 0.494785 0.644572
vt 0.490489 0.644956
vt 0.494262 0.650252
vt 0.495296 0.643838
vt 0.489954 0.644260
vt 0.488893 0.650657
vt 0.489385 0.643830
vt 0.488322 0.650244
vt 0.494742 0.643407
vt 0.489505 0.650330
vt 0.462852 0.803815
vt 0.462852 0.803815
vt 0.514238 0.658654
vt 0.514238 0.675475
vt 0.513296 0.674534
vt 0.513296 0.659596
vt 0.497417 0.675475
vt 0.498358 0.674534
vt 0.497417 0.658654
vt 0.498358 0.659596
vt 0.515473 0.676710
vt 0.515473 0.657419
vt 0.496182 0.657419
vt 0.496182 0.676710
vt 0.468881 0.803815
vt 0.468881 0.803815
vt 0.493314 0.649262
vt 0.493726 0.649853
vt 0.469504 0.803815
vt 0.463491 0.803815
vt 0.494785 0.644572
vt 0.490489 0.644956
vt 0.907542 0.650252
vt 0.912911 0.650657
vt 0.911850 0.644260
vt 0.906508 0.643838
vt 0.913482 0.650244
vt 0.912418 0.643830
vt 0.907062 0.643407
vt 0.938952 0.803815
vt 0.938952 0.803815
vt 0.912299 0.650330
vt 0.887566 0.658654
vt 0.888507 0.659596
vt 0.888507 0.674534
vt 0.887566 0.675475
vt 0.903445 0.674534
vt 0.904387 0.675475
vt 0.903445 0.659596
vt 0.904387 0.658654
vt 0.886331 0.676710
vt 0.905622 0.676710
vt 0.905622 0.657419
vt 0.886331 0.657419
vt 0.932923 0.803815
vt 0.908078 0.649853
vt 0.908489 0.649262
vt 0.932923 0.803815
vt 0.932300 0.803815
vt 0.938312 0.803815
vt 0.907018 0.644572
vt 0.911315 0.644956
vt 0.907542 0.957378
vt 0.906508 0.963792
vt 0.911850 0.963370
vt 0.912911 0.956973
vt 0.912418 0.963800
vt 0.913482 0.957386
vt 0.700902 0.980025
vt 0.700902 0.980500
vt 0.907062 0.964223
vt 0.912299 0.957300
vt 0.887566 0.948975
vt 0.887566 0.932155
vt 0.888507 0.933096
vt 0.888507 0.948034
vt 0.904387 0.932155
vt 0.903445 0.933096
vt 0.904387 0.948975
vt 0.903445 0.948034
vt 0.886331 0.930919
vt 0.886331 0.950211
vt 0.905622 0.950211
vt 0.905622 0.930919
vt 0.908489 0.958368
vt 0.908078 0.957776
vt 0.700902 0.972961
vt 0.700902 0.973416
vt 0.700902 0.973416
vt 0.963977 0.405008
vt 0.756801 0.420647
vt 0.907018 0.963058
vt 0.700902 0.980500
vt 0.911315 0.962674
vt 0.494262 0.957378
vt 0.488893 0.956973
vt 0.489954 0.963370
vt 0.495296 0.963792
vt 0.488322 0.957386
vt 0.489385 0.963800
vt 0.494742 0.964223
vt 0.489505 0.957300
vt 0.514238 0.948975
vt 0.513296 0.948034
vt 0.513296 0.933096
vt 0.514238 0.932155
vt 0.498358 0.933096
vt 0.497417 0.932155
vt 0.498358 0.948034
vt 0.497417 0.948975
vt 0.515473 0.930919
vt 0.496182 0.930919
vt 0.496182 0.950211
vt 0.515473 0.950211
vt 0.493726 0.957776
vt 0.493314 0.958368
vt 0.549625 0.405008
vt 0.494785 0.963058
vt 0.490489 0.962674
vt 0.494262 0.957378
vt 0.488893 0.956973
vt 0.489954 0.963370
vt 0.495296 0.963792
vt 0.488322 0.957386
vt 0.489385 0.963800
vt 0.494742 0.964223
vt 0.489505 0.957300
vt 0.514238 0.948975
vt 0.513296 0.948034
vt 0.513296 0.933096
vt 0.514238 0.932155
vt 0.498358 0.933096
vt 0.497417 0.932155
vt 0.498358 0.948034
vt 0.497417 0.948975
vt 0.515473 0.930919
vt 0.496182 0.930919
vt 0.496182 0.950211
vt 0.515473 0.950211
vt 0.493726 0.957776
vt 0.493314 0.958368
vt 0.494785 0.963058
vt 0.490489 0.962674
vt 0.907542 0.957378
vt 0.906508 0.963792
vt 0.911850 0.963370
vt 0.912911 0.956973
vt 0.912418 0.963800
vt 0.913482 0.957386
vt 0.907062 0.964223
vt 0.912299 0.957300
vt 0.887566 0.948975
vt 0.887566 0.932155
vt 0.888507 0.933096
vt 0.888507 0.948034
vt 0.904387 0.932155
vt 0.903445 0.933096
vt 0.904387 0.948975
vt 0.903445 0.948034
vt 0.886331 0.930919
vt 0.886331 0.950211
vt 0.905622 0.950211
vt 0.905622 0.930919
vt 0.908489 0.958368
vt 0.908078 0.957776
vt 0.907018 0.963058
vt 0.911315 0.962674
vn 0.0009 1.0000 -0.0012
vn -0.0009 1.0000 -0.0012
vn 0.0009 1.0000 0.0012
vn -0.0009 1.0000 0.0012
vn 0.0000 -1.0000 0.0000
vn 0.9837 -0.0753 0.1632
vn 0.0786 -0.0565 0.9953
vn 0.8794 0.4512 0.1517
vn 0.9997 0.0239 0.0000
vn 0.0000 0.0239 0.9997
vn -0.9997 0.0239 0.0000
vn 0.0000 0.0239 -0.9997
vn 0.0000 1.0000 0.0000
vn 0.0000 0.0122 -0.9999
vn -0.9999 0.0122 0.0000
vn 0.0000 0.0122 0.9999
vn 0.9999 0.0122 0.0000
vn -0.9690 0.1933 -0.1539
vn -0.0708 0.2375 -0.9688
vn 0.0082 0.9999 0.0109
vn 0.0656 0.9967 0.0482
vn 0.0203 0.9997 0.0135
vn 0.0750 0.4360 0.8968
vn 0.1791 0.9826 0.0485
vn 0.0456 0.9767 0.2099
vn -0.9837 -0.0753 0.1632
vn -0.0786 -0.0565 0.9953
vn -0.8794 0.4512 0.1517
vn 0.9690 0.1933 -0.1539
vn 0.0708 0.2375 -0.9688
vn -0.0082 0.9999 0.0109
vn -0.0656 0.9967 0.0482
vn -0.0203 0.9997 0.0135
vn -0.0750 0.4360 0.8968
vn -0.1791 0.9826 0.0485
vn -0.0456 0.9767 0.2099
vn 0.9837 -0.0753 -0.1632
vn 0.0786 -0.0565 -0.9953
vn 0.8794 0.4512 -0.1517
vn -0.9690 0.1933 0.1539
vn -0.0708 0.2375 0.9688
vn 0.0082 0.9999 -0.0109
vn 0.0656 0.9967 -0.0482
vn 0.0203 0.9997 -0.0135
vn 0.0750 0.4360 -0.8968
vn 0.1791 0.9826 -0.0485
vn 0.0456 0.9767 -0.2099
vn -0.9837 -0.0753 -0.1632
vn -0.0786 -0.0565 -0.9953
vn -0.8794 0.4512 -0.1517
vn 0.9690 0.1933 0.1539
vn 0.0708 0.2375 0.9688
vn -0.0082 0.9999 -0.0109
vn -0.0656 0.9967 -0.0482
vn -0.0203 0.9997 -0.0135
vn -0.0750 0.4360 -0.8968
vn -0.1791 0.9826 -0.0485
vn -0.0456 0.9767 -0.2099
usemtl Material.001
s off
f 4/1/1 1/2/1 2/3/1 6/4/1
f 7/5/2 6/4/2 2/3/2 3/6/2
f 4/1/3 6/4/3 8/7/3 5/8/3
f 7/5/4 9/9/4 8/7/4 6/4/4
f 29/10/5 27/11/5 11/12/5 24/13/5
f 27/11/6 26/14/6 10/15/6 11/12/6
f 24/13/7 25/16/7 84/17/7 85/18/7
f 26/14/8 122/19/8 137/20/8 32/21/8
f 20/22/9 13/23/9 15/24/9 21/25/9
f 21/25/10 15/24/10 19/26/10 22/27/10
f 22/27/11 19/26/11 17/28/11 23/29/11
f 23/29/12 17/28/12 13/23/12 20/22/12
f 14/30/5 18/31/5 16/32/5 12/33/5
f 19/26/13 15/24/13 13/23/13 17/28/13
f 16/32/14 23/29/14 20/22/14 12/33/14
f 18/31/15 22/27/15 23/29/15 16/32/15
f 14/30/16 21/25/16 22/27/16 18/31/16
f 12/33/17 20/22/17 21/25/17 14/30/17
f 130/34/18 28/35/18 33/36/18 139/37/18
f 11/12/7 10/15/7 25/16/7 24/13/7
f 101/38/5 29/10/5 24/13/5 85/18/5
f 216/39/5 131/40/5 29/10/5 101/38/5
f 28/35/19 102/41/19 110/42/19 33/36/19
f 130/43/2 217/44/2 102/45/2 28/46/2
f 123/47/6 122/19/6 26/14/6 27/11/6
f 131/40/5 123/47/5 27/11/5 29/10/5
f 33/36/20 110/42/20 107/48/20 31/49/20
f 32/21/21 33/36/21 31/49/21 30/50/21
f 137/20/22 139/37/22 33/36/22 32/21/22
f 84/17/23 25/16/23 31/49/23 107/48/23
f 10/15/24 26/14/24 32/21/24 30/50/24
f 25/16/25 10/15/25 30/50/25 31/49/25
f 53/51/5 48/52/5 35/53/5 51/54/5
f 51/54/26 35/53/26 34/55/26 50/56/26
f 48/52/27 85/18/27 84/17/27 49/57/27
f 50/56/28 56/58/28 167/59/28 152/60/28
f 44/61/11 45/62/11 39/63/11 37/64/11
f 45/62/10 46/65/10 43/66/10 39/63/10
f 46/65/9 47/67/9 41/68/9 43/66/9
f 47/67/12 44/61/12 37/64/12 41/68/12
f 38/69/5 36/70/5 40/71/5 42/72/5
f 43/66/13 41/68/13 37/64/13 39/63/13
f 40/71/14 36/70/14 44/61/14 47/67/14
f 42/72/17 40/71/17 47/67/17 46/65/17
f 38/69/16 42/72/16 46/65/16 45/62/16
f 36/70/15 38/69/15 45/62/15 44/61/15
f 160/73/29 169/74/29 57/75/29 52/76/29
f 35/53/27 48/52/27 49/57/27 34/55/27
f 101/38/5 85/18/5 48/52/5 53/51/5
f 216/39/5 101/38/5 53/51/5 161/77/5
f 52/76/30 57/75/30 110/42/30 102/41/30
f 160/78/1 52/79/1 102/45/1 217/44/1
f 153/80/26 51/54/26 50/56/26 152/60/26
f 161/77/5 53/51/5 51/54/5 153/80/5
f 57/75/31 55/81/31 107/48/31 110/42/31
f 56/58/32 54/82/32 55/81/32 57/75/32
f 167/59/33 56/58/33 57/75/33 169/74/33
f 84/17/34 107/48/34 55/81/34 49/57/34
f 34/55/35 54/82/35 56/58/35 50/56/35
f 49/57/36 55/81/36 54/82/36 34/55/36
f 77/83/5 72/84/5 59/85/5 75/86/5
f 75/86/26 59/85/26 58/87/26 74/88/26
f 72/84/27 85/18/27 84/17/27 73/89/27
f 74/88/28 80/90/28 197/91/28 182/92/28
f 68/93/11 69/94/11 63/95/11 61/96/11
f 69/94/10 70/97/10 67/98/10 63/95/10
f 70/97/9 71/99/9 65/100/9 67/98/9
f 71/99/12 68/93/12 61/96/12 65/100/12
f 62/101/5 60/102/5 64/103/5 66/104/5
f 67/98/13 65/100/13 61/96/13 63/95/13
f 64/103/14 60/102/14 68/93/14 71/99/14
f 66/104/17 64/103/17 71/99/17 70/97/17
f 62/101/16 66/104/16 70/97/16 69/94/16
f 60/102/15 62/101/15 69/94/15 68/93/15
f 190/105/29 199/106/29 81/107/29 76/108/29
f 59/85/27 72/84/27 73/89/27 58/87/27
f 101/38/5 85/18/5 72/84/5 77/83/5
f 216/39/5 101/38/5 77/83/5 191/109/5
f 76/108/30 81/107/30 110/42/30 102/41/30
f 183/110/26 75/86/26 74/88/26 182/92/26
f 191/109/5 77/83/5 75/86/5 183/110/5
f 81/107/31 79/111/31 107/48/31 110/42/31
f 80/90/32 78/112/32 79/111/32 81/107/32
f 197/91/33 80/90/33 81/107/33 199/106/33
f 84/17/34 107/48/34 79/111/34 73/89/34
f 58/87/35 78/112/35 80/90/35 74/88/35
f 73/89/36 79/111/36 78/112/36 58/87/36
f 105/113/5 103/114/5 83/115/5 98/116/5
f 103/114/6 100/117/6 82/118/6 83/115/6
f 98/116/7 99/119/7 84/17/7 85/18/7
f 100/117/8 214/120/8 234/121/8 109/122/8
f 94/123/9 87/124/9 89/125/9 95/126/9
f 95/126/10 89/125/10 93/127/10 96/128/10
f 96/128/11 93/127/11 91/129/11 97/130/11
f 97/130/12 91/129/12 87/124/12 94/123/12
f 88/131/5 92/132/5 90/133/5 86/134/5
f 93/127/13 89/125/13 87/124/13 91/129/13
f 90/133/14 97/130/14 94/123/14 86/134/14
f 92/132/15 96/128/15 97/130/15 90/133/15
f 88/131/16 95/126/16 96/128/16 92/132/16
f 86/134/17 94/123/17 95/126/17 88/131/17
f 224/135/18 104/136/18 111/137/18 236/138/18
f 83/115/7 82/118/7 99/119/7 98/116/7
f 101/38/5 105/113/5 98/116/5 85/18/5
f 216/39/5 225/139/5 105/113/5 101/38/5
f 104/136/19 102/41/19 110/42/19 111/137/19
f 215/140/6 214/120/6 100/117/6 103/114/6
f 225/139/5 215/140/5 103/114/5 105/113/5
f 111/137/20 110/42/20 107/48/20 108/141/20
f 109/122/21 111/137/21 108/141/21 106/142/21
f 234/121/22 236/138/22 111/137/22 109/122/22
f 84/17/23 99/119/23 108/141/23 107/48/23
f 82/118/24 100/117/24 109/122/24 106/142/24
f 99/119/25 82/118/25 106/142/25 108/141/25
f 135/143/5 128/144/5 113/145/5 133/146/5
f 133/146/37 113/145/37 112/147/37 132/148/37
f 128/144/38 205/149/38 204/150/38 129/151/38
f 132/148/39 140/152/39 137/20/39 122/19/39
f 124/153/9 125/154/9 117/155/9 115/156/9
f 125/154/12 126/157/12 121/158/12 117/155/12
f 126/157/11 127/159/11 119/160/11 121/158/11
f 127/159/10 124/153/10 115/156/10 119/160/10
f 116/161/5 114/162/5 118/163/5 120/164/5
f 121/158/13 119/160/13 115/156/13 117/155/13
f 118/163/16 114/162/16 124/153/16 127/159/16
f 120/164/15 118/163/15 127/159/15 126/157/15
f 116/161/14 120/164/14 126/157/14 125/154/14
f 114/162/17 116/161/17 125/154/17 124/153/17
f 130/34/40 139/37/40 141/165/40 134/166/40
f 113/145/38 128/144/38 129/151/38 112/147/38
f 227/167/5 205/149/5 128/144/5 135/143/5
f 216/39/5 227/167/5 135/143/5 131/40/5
f 134/166/41 141/165/41 238/168/41 228/169/41
f 130/43/4 134/170/4 228/171/4 217/44/4
f 123/47/37 133/146/37 132/148/37 122/19/37
f 131/40/5 135/143/5 133/146/5 123/47/5
f 141/165/42 138/172/42 233/173/42 238/168/42
f 140/152/43 136/174/43 138/172/43 141/165/43
f 137/20/44 140/152/44 141/165/44 139/37/44
f 204/150/45 233/173/45 138/172/45 129/151/45
f 112/147/46 136/174/46 140/152/46 132/148/46
f 129/151/47 138/172/47 136/174/47 112/147/47
f 165/175/5 163/176/5 143/177/5 158/178/5
f 163/176/48 162/179/48 142/180/48 143/177/48
f 158/178/49 159/181/49 204/150/49 205/149/49
f 162/179/50 152/60/50 167/59/50 170/182/50
f 154/183/11 145/184/11 147/185/11 155/186/11
f 155/186/12 147/185/12 151/187/12 156/188/12
f 156/188/9 151/187/9 149/189/9 157/190/9
f 157/190/10 149/189/10 145/184/10 154/183/10
f 146/191/5 150/192/5 148/193/5 144/194/5
f 151/187/13 147/185/13 145/184/13 149/189/13
f 148/193/16 157/190/16 154/183/16 144/194/16
f 150/192/17 156/188/17 157/190/17 148/193/17
f 146/191/14 155/186/14 156/188/14 150/192/14
f 144/194/15 154/183/15 155/186/15 146/191/15
f 160/73/51 164/195/51 171/196/51 169/74/51
f 143/177/49 142/180/49 159/181/49 158/178/49
f 227/167/5 165/175/5 158/178/5 205/149/5
f 216/39/5 161/77/5 165/175/5 227/167/5
f 164/195/52 228/169/52 238/168/52 171/196/52
f 160/78/3 217/44/3 228/171/3 164/197/3
f 153/80/48 152/60/48 162/179/48 163/176/48
f 161/77/5 153/80/5 163/176/5 165/175/5
f 171/196/53 238/168/53 233/173/53 168/198/53
f 170/182/54 171/196/54 168/198/54 166/199/54
f 167/59/55 169/74/55 171/196/55 170/182/55
f 204/150/56 159/181/56 168/198/56 233/173/56
f 142/180/57 162/179/57 170/182/57 166/199/57
f 159/181/58 142/180/58 166/199/58 168/198/58
f 195/200/5 193/201/5 173/202/5 188/203/5
f 193/201/48 192/204/48 172/205/48 173/202/48
f 188/203/49 189/206/49 204/150/49 205/149/49
f 192/204/50 182/92/50 197/91/50 200/207/50
f 184/208/11 175/209/11 177/210/11 185/211/11
f 185/211/12 177/210/12 181/212/12 186/213/12
f 186/213/9 181/212/9 179/214/9 187/215/9
f 187/215/10 179/214/10 175/209/10 184/208/10
f 176/216/5 180/217/5 178/218/5 174/219/5
f 181/212/13 177/210/13 175/209/13 179/214/13
f 178/218/16 187/215/16 184/208/16 174/219/16
f 180/217/17 186/213/17 187/215/17 178/218/17
f 176/216/14 185/211/14 186/213/14 180/217/14
f 174/219/15 184/208/15 185/211/15 176/216/15
f 190/105/51 194/220/51 201/221/51 199/106/51
f 173/202/49 172/205/49 189/206/49 188/203/49
f 227/167/5 195/200/5 188/203/5 205/149/5
f 216/39/5 191/109/5 195/200/5 227/167/5
f 194/220/52 228/169/52 238/168/52 201/221/52
f 183/110/48 182/92/48 192/204/48 193/201/48
f 191/109/5 183/110/5 193/201/5 195/200/5
f 201/221/53 238/168/53 233/173/53 198/222/53
f 200/207/54 201/221/54 198/222/54 196/223/54
f 197/91/55 199/106/55 201/221/55 200/207/55
f 204/150/56 189/206/56 198/222/56 233/173/56
f 172/205/57 192/204/57 200/207/57 196/223/57
f 189/206/58 172/205/58 196/223/58 198/222/58
f 231/224/5 222/225/5 203/226/5 229/227/5
f 229/227/37 203/226/37 202/228/37 226/229/37
f 222/225/38 205/149/38 204/150/38 223/230/38
f 226/229/39 237/231/39 234/121/39 214/120/39
f 218/232/9 219/233/9 209/234/9 207/235/9
f 219/233/12 220/236/12 213/237/12 209/234/12
f 220/236/11 221/238/11 211/239/11 213/237/11
f 221/238/10 218/232/10 207/235/10 211/239/10
f 208/240/5 206/241/5 210/242/5 212/243/5
f 213/237/13 211/239/13 207/235/13 209/234/13
f 210/242/16 206/241/16 218/232/16 221/238/16
f 212/243/15 210/242/15 221/238/15 220/236/15
f 208/240/14 212/243/14 220/236/14 219/233/14
f 206/241/17 208/240/17 219/233/17 218/232/17
f 224/135/40 236/138/40 239/244/40 230/245/40
f 203/226/38 222/225/38 223/230/38 202/228/38
f 227/167/5 205/149/5 222/225/5 231/224/5
f 216/39/5 227/167/5 231/224/5 225/139/5
f 230/245/41 239/244/41 238/168/41 228/169/41
f 215/140/37 229/227/37 226/229/37 214/120/37
f 225/139/5 231/224/5 229/227/5 215/140/5
f 239/244/42 235/246/42 233/173/42 238/168/42
f 237/231/43 232/247/43 235/246/43 239/244/43
f 234/121/44 237/231/44 239/244/44 236/138/44
f 204/150/45 233/173/45 235/246/45 223/230/45
f 202/228/46 232/247/46 237/231/46 226/229/46
f 223/230/47 235/246/47 232/247/47 202/228/47
